# xmcd CD database file
# Copyright (C) 1997 Ti Kan
#
# Track frame offsets:
#  150
#  10030
#  27607
#  44270
#  58762
#  71060
#  88847
#  108040
#  121470
#  136107
#  150097
#  171192
#  182465
#  193335
#
# Disc length: 2752 seconds
#
# Revision: 1
# Processed by: cddbd v1.4b41PL1 Copyright (c) Steve Scherf et al.
# Submitted via: CDWizzard Release:4.32
#
DISCID=b50abe0e
DTITLE=Buddy Merriam and Back Roads - Mystery Train
DYEAR=1900
DGENRE=
TTITLE0=Ridin' On Those Rubber Wheels
TTITLE1=Mystery Train - Tiger man
TTITLE2=Shinnecock
TTITLE3=Blue Eyes From heaven
TTITLE4=I've Just Seen a Face
TTITLE5=Rain And Snow
TTITLE6=Outer Bridge Crossing
TTITLE7=Dixie Bound
TTITLE8=The Letter
TTITLE9=Monroe Special
TTITLE10=Bury Me On A Mountain
TTITLE11=Cindy
TTITLE12=Spirit Of A Dancer
TTITLE13=One Way Track
EXTD=
EXTT0=
EXTT1=
EXTT2=
EXTT3=
EXTT4=
EXTT5=
EXTT6=
EXTT7=
EXTT8=
EXTT9=
EXTT10=
EXTT11=
EXTT12=
EXTT13=
PLAYORDER=
